<svg width="220" height="110" viewBox="0 0 220 110" fill="none" xmlns="http://www.w3.org/2000/svg">
<g clip-path="url(#clip0_2922_66100)">
<path d="M87.4752 64.1442L88.9648 60.6627C90.5957 61.8705 92.7229 62.5097 94.8506 62.5097C96.4108 62.5097 97.4035 61.9061 97.4035 60.9825C97.3679 58.4246 88.0072 60.414 87.936 53.983C87.9004 50.7146 90.8082 48.1922 94.9218 48.1922C97.3679 48.1922 99.815 48.7963 101.552 50.1821L100.16 53.7378C98.562 52.7101 96.5878 51.9935 94.7088 51.9935C93.4323 51.9935 92.581 52.5972 92.581 53.3793C92.6166 55.9017 102.049 54.5159 102.155 60.6627C102.155 64.0023 99.3182 66.3472 95.2758 66.3472C92.2978 66.3472 89.5674 65.6367 87.4747 64.1442H87.4752ZM146.786 59.402C146.41 60.07 145.863 60.6261 145.201 61.013C144.539 61.4 143.786 61.6039 143.02 61.604C140.631 61.604 138.694 59.6634 138.694 57.2697C138.694 54.876 140.631 52.9354 143.02 52.9354C143.786 52.9354 144.539 53.1394 145.201 53.5263C145.863 53.9133 146.41 54.4693 146.786 55.1374L150.927 52.8387C149.376 50.0667 146.417 48.1922 143.02 48.1922C138.016 48.1922 133.96 52.2559 133.96 57.2697C133.96 62.2829 138.016 66.3472 143.02 66.3472C146.417 66.3472 149.376 64.4727 150.927 61.7006L146.786 59.402ZM104.842 65.9917H110.019V40.6357H104.843L104.842 65.9917ZM153.541 40.6357V65.9917H158.718V58.3951L164.853 65.9917H171.47L163.669 56.9671L170.902 48.5461H164.569L158.718 55.5472V40.6357H153.541ZM125.969 48.5471V50.6083C125.118 49.1869 123.026 48.1922 120.828 48.1922C116.289 48.1922 112.708 52.2071 112.708 57.2519C112.708 62.2966 116.289 66.3472 120.828 66.3472C123.026 66.3472 125.118 65.3525 125.969 63.9311V65.9917H131.146V48.5471H125.969ZM125.969 59.4371C125.224 60.6805 123.664 61.6035 121.927 61.6035C119.537 61.6035 117.601 59.6634 117.601 57.2697C117.601 54.876 119.537 52.9354 121.927 52.9354C123.664 52.9354 125.224 53.8945 125.969 55.173V59.4371Z" fill="white"/>
<path d="M60.1362 40.0752C58.4585 40.0752 57.0986 41.4381 57.0986 43.1188C57.0982 43.5181 57.1765 43.9136 57.3289 44.2826C57.4813 44.6517 57.705 44.9871 57.987 45.2697C58.2691 45.5524 58.6041 45.7767 58.9728 45.9298C59.3416 46.083 59.7369 46.1621 60.1362 46.1625H63.1742V43.1188C63.1749 42.3124 62.8552 41.5387 62.2855 40.9679C61.7157 40.3971 60.9426 40.076 60.1362 40.0752ZM60.1362 48.1915H52.0356C50.3579 48.1915 48.998 49.5544 48.998 51.2357C48.998 52.9164 50.3579 54.2793 52.0356 54.2793H60.1367C61.8138 54.2793 63.1742 52.9164 63.1742 51.2357C63.1742 49.5544 61.8138 48.1915 60.1362 48.1915Z" fill="white"/>
<path d="M79.3768 51.2357C79.3768 49.5544 78.0165 48.1915 76.3388 48.1915C74.6611 48.1915 73.3013 49.5544 73.3013 51.2357V54.2793H76.3388C77.1453 54.2785 77.9184 53.9574 78.4881 53.3866C79.0578 52.8158 79.3775 52.0421 79.3768 51.2357ZM71.2762 51.2357V43.1188C71.2769 42.3124 70.9572 41.5387 70.3875 40.9679C69.8178 40.3971 69.0447 40.076 68.2382 40.0752C66.5605 40.0752 65.2007 41.4381 65.2007 43.1188V51.2352C65.2007 52.9169 66.5605 54.2798 68.2382 54.2798C69.0447 54.279 69.8178 53.9579 70.3875 53.3871C70.9572 52.8163 71.2769 52.0426 71.2762 51.2362" fill="white"/>
<path d="M68.2382 70.5127C69.0447 70.5119 69.8178 70.1908 70.3875 69.62C70.9572 69.0492 71.2769 68.2755 71.2762 67.4691C71.2769 66.6626 70.9572 65.8889 70.3875 65.3181C69.8178 64.7474 69.0447 64.4263 68.2382 64.4255H65.2007V67.4691C65.2007 69.1498 66.5605 70.5127 68.2382 70.5127ZM68.2382 62.3964H76.3393C78.0165 62.3964 79.3768 61.0335 79.3768 59.3522C79.3775 58.5458 79.0578 57.7721 78.4881 57.2013C77.9184 56.6305 77.1453 56.3094 76.3388 56.3086H68.2382C66.5605 56.3086 65.2007 57.6715 65.2007 59.3522C65.2003 59.7515 65.2785 60.147 65.431 60.516C65.5834 60.8851 65.807 61.2205 66.0891 61.5031C66.3712 61.7858 66.7061 62.0101 67.0749 62.1632C67.4436 62.3164 67.8389 62.3955 68.2382 62.3959" fill="white"/>
<path d="M48.9962 59.3517C48.9958 59.751 49.0741 60.1465 49.2265 60.5155C49.3789 60.8846 49.6026 61.22 49.8846 61.5026C50.1667 61.7853 50.5017 62.0096 50.8704 62.1627C51.2391 62.3159 51.6345 62.395 52.0337 62.3954C52.8402 62.3946 53.6133 62.0735 54.183 61.5027C54.7528 60.9319 55.0725 60.1582 55.0718 59.3517V56.3081H52.0337C50.3561 56.3081 48.9962 57.671 48.9962 59.3517ZM57.0968 59.3517V67.4681C57.0968 69.1493 58.4566 70.5122 60.1343 70.5122C60.9408 70.5114 61.7139 70.1903 62.2836 69.6195C62.8534 69.0488 63.173 68.2751 63.1724 67.4686V59.3517C63.1728 58.9524 63.0945 58.5569 62.942 58.1878C62.7896 57.8187 62.5659 57.4833 62.2838 57.2006C62.0017 56.918 61.6666 56.6937 61.2978 56.5406C60.929 56.3874 60.5337 56.3084 60.1343 56.3081C58.4566 56.3081 57.0968 57.671 57.0968 59.3517Z" fill="white"/>
</g>
<defs>
<clipPath id="clip0_2922_66100">
<rect width="122.05" height="30.5126" fill="white" transform="translate(49 40)"/>
</clipPath>
</defs>
</svg>
