<svg width="54" height="54" viewBox="0 0 54 54" fill="none" xmlns="http://www.w3.org/2000/svg">
<g clip-path="url(#clip0_2958_69192)">
<path fill-rule="evenodd" clip-rule="evenodd" d="M53.75 42.5V51.4842C53.75 52.7352 52.7398 53.75 51.4843 53.75H22.2658C21.9681 53.7503 21.6734 53.6919 21.3983 53.5781C21.1233 53.4644 20.8734 53.2975 20.663 53.087C20.4525 52.8766 20.2856 52.6267 20.1719 52.3517C20.0581 52.0766 19.9997 51.7819 20 51.4842L20.0068 22.2657C20.0068 21.0148 21.017 20 22.2725 20H31.25H35.75H51.4843C52.7353 20 53.75 21.0102 53.75 22.2657V38V42.5ZM49.25 24.25H24.5068L24.5 49H49.25V24.25Z" fill="white"/>
<path d="M34.456 45.1597L26.5 37.2037L29.6815 34.0223L34.456 38.7967L44.0005 29.25L47.182 32.4315L34.456 45.1597Z" fill="#E58F93"/>
<path fill-rule="evenodd" clip-rule="evenodd" d="M24.9695 7.62121L10.2855 15.2544L8.42578 11.6769L23.1098 4.0437L24.9695 7.62121Z" fill="#E58F93"/>
<path d="M16.7031 32.9691V17.2811L31.3857 9.64795V25.336L16.7031 32.9691Z" fill="#E58F93"/>
<path fill-rule="evenodd" clip-rule="evenodd" d="M18.4888 1.0867C19.0023 2.07465 18.6176 3.29178 17.6297 3.80525L6.38721 9.64836L16.6999 15.0092L30.4525 7.85948C31.0775 7.53457 31.8267 7.5594 32.4287 7.92497C33.0308 8.29054 33.3984 8.94383 33.3984 9.6482V25.4635C33.3984 26.5769 32.4958 27.4795 31.3824 27.4795C30.269 27.4795 29.3664 26.5769 29.3664 25.4635V12.9685L18.716 18.5055V31.4455C18.716 32.5589 17.8134 33.4615 16.7 33.4615C15.5866 33.4615 14.684 32.5589 14.684 31.4455V18.5055L1.08615 11.437C0.418728 11.09 -2.85232e-05 10.4003 1.45718e-09 9.64812C2.85261e-05 8.8959 0.418837 8.20627 1.08629 7.85937L15.7703 0.227593C16.7582 -0.285874 17.9753 0.0987629 18.4888 1.0867Z" fill="white"/>
<path fill-rule="evenodd" clip-rule="evenodd" d="M15.7703 0.227666C16.3531 -0.0752504 17.047 -0.0752368 17.6298 0.227702L32.3123 7.85948L30.4528 11.4371L16.6999 4.28855L4.03201 10.8725V24.1121L16.6999 30.6973L30.4526 23.5476L32.3125 27.125L17.6299 34.7582C17.047 35.0612 16.353 35.0612 15.7701 34.7582L1.08615 27.125C0.418752 26.7781 0 26.0885 0 25.3363V9.64827C0 8.89603 0.418813 8.20635 1.08629 7.85944L15.7703 0.227666Z" fill="white"/>
</g>
<defs>
<clipPath id="clip0_2958_69192">
<rect width="54" height="54" fill="white"/>
</clipPath>
</defs>
</svg>
