<svg width="48" height="48" viewBox="0 0 48 48" fill="none" xmlns="http://www.w3.org/2000/svg">
<g clip-path="url(#clip0_1892_57705)">
<path d="M35.2351 11.936L38.1411 9.03L40.9691 11.858L38.0631 14.764C40.9347 18.3583 42.321 22.9158 41.9373 27.5003C41.5536 32.0848 39.4291 36.3484 36.0001 39.4154C32.5711 42.4825 28.0979 44.1202 23.4991 43.9922C18.9004 43.8641 14.5252 41.9801 11.2721 38.7271C8.01901 35.474 6.135 31.0988 6.00698 26.5C5.87896 21.9013 7.51664 17.428 10.5837 13.999C13.6508 10.57 17.9144 8.44551 22.4989 8.06184C27.0834 7.67817 31.6408 9.06446 35.2351 11.936ZM23.9991 40C25.8376 40 27.6582 39.6379 29.3567 38.9343C31.0553 38.2307 32.5986 37.1995 33.8986 35.8995C35.1987 34.5995 36.2299 33.0561 36.9335 31.3576C37.637 29.659 37.9991 27.8385 37.9991 26C37.9991 24.1615 37.637 22.341 36.9335 20.6424C36.2299 18.9439 35.1987 17.4005 33.8986 16.1005C32.5986 14.8005 31.0553 13.7693 29.3567 13.0657C27.6582 12.3621 25.8376 12 23.9991 12C20.2861 12 16.7252 13.475 14.0996 16.1005C11.4741 18.726 9.99914 22.287 9.99914 26C9.99914 29.713 11.4741 33.274 14.0996 35.8995C16.7252 38.525 20.2861 40 23.9991 40ZM21.9991 16H25.9991V28H21.9991V16ZM15.9991 2H31.9991V6H15.9991V2Z" fill="black"/>
<path d="M22 16H26V28H22V16ZM16 2H32V6H16V2Z" fill="#CC2027"/>
</g>
<defs>
<clipPath id="clip0_1892_57705">
<rect width="48" height="48" fill="white"/>
</clipPath>
</defs>
</svg>
