<svg width="54" height="54" viewBox="0 0 54 54" fill="none" xmlns="http://www.w3.org/2000/svg">
<g clip-path="url(#clip0_2957_69084)">
<path d="M45 45.0001C45 45.5968 44.7629 46.1691 44.341 46.5911C43.919 47.013 43.3467 47.2501 42.75 47.2501H11.25C10.6533 47.2501 10.081 47.013 9.65901 46.5911C9.23705 46.1691 9 45.5968 9 45.0001V24.7501H2.25L25.4857 3.62706C25.9 3.25014 26.4399 3.04126 27 3.04126C27.5601 3.04126 28.1 3.25014 28.5143 3.62706L51.75 24.7501H45V45.0001ZM40.5 42.7501V20.6033L27 8.33181L13.5 20.6033V42.7501H40.5ZM27 38.2501L19.4422 30.6923C18.9722 30.2222 18.5992 29.6641 18.3448 29.0499C18.0904 28.4357 17.9595 27.7774 17.9595 27.1126C17.9595 26.4477 18.0904 25.7894 18.3448 25.1752C18.5992 24.561 18.9722 24.0029 19.4422 23.5328C19.9123 23.0627 20.4704 22.6898 21.0847 22.4354C21.6989 22.181 22.3572 22.05 23.022 22.05C23.6868 22.05 24.3451 22.181 24.9593 22.4354C25.5736 22.6898 26.1317 23.0627 26.6017 23.5328L27 23.9311L27.3983 23.5328C27.8683 23.0627 28.4264 22.6898 29.0407 22.4354C29.6549 22.181 30.3132 22.05 30.978 22.05C31.6428 22.05 32.3011 22.181 32.9153 22.4354C33.5296 22.6898 34.0877 23.0627 34.5578 23.5328C35.0279 24.0029 35.4008 24.561 35.6552 25.1752C35.9096 25.7894 36.0405 26.4477 36.0405 27.1126C36.0405 27.7774 35.9096 28.4357 35.6552 29.0499C35.4008 29.6641 35.0279 30.2222 34.5578 30.6923L27 38.2501Z" fill="black"/>
<path d="M26.9995 38.2501L19.4418 30.6923C18.9717 30.2222 18.5988 29.6641 18.3443 29.0499C18.0899 28.4357 17.959 27.7774 17.959 27.1126C17.959 26.4478 18.0899 25.7894 18.3443 25.1752C18.5988 24.561 18.9717 24.0029 19.4418 23.5328C19.9119 23.0627 20.47 22.6898 21.0842 22.4354C21.6984 22.181 22.3567 22.05 23.0215 22.05C23.6863 22.05 24.3446 22.181 24.9589 22.4354C25.5731 22.6898 26.1312 23.0627 26.6013 23.5328L26.9995 23.9311L27.3978 23.5328C27.8679 23.0627 28.426 22.6898 29.0402 22.4354C29.6544 22.181 30.3127 22.05 30.9775 22.05C31.6423 22.05 32.3006 22.181 32.9149 22.4354C33.5291 22.6898 34.0872 23.0627 34.5573 23.5328C35.0274 24.0029 35.4003 24.561 35.6547 25.1752C35.9091 25.7894 36.04 26.4478 36.04 27.1126C36.04 27.7774 35.9091 28.4357 35.6547 29.0499C35.4003 29.6641 35.0274 30.2222 34.5573 30.6923L26.9995 38.2501Z" fill="#CC2027"/>
</g>
<defs>
<clipPath id="clip0_2957_69084">
<rect width="54" height="54" fill="white"/>
</clipPath>
</defs>
</svg>
