<svg width="48" height="48" viewBox="0 0 48 48" fill="none" xmlns="http://www.w3.org/2000/svg">
<g clip-path="url(#clip0_1618_48609)">
<path d="M33 6C39.076 6 44 11 44 18C44 32 29 40 24 43C20.046 40.628 9.834 35.126 5.738 26.002L2 26V22H4.42C4.148 20.728 4 19.396 4 18C4 11 9 6 15 6C18.72 6 22 8 24 10C26 8 29.28 6 33 6ZM33 10C30.848 10 28.52 11.14 26.828 12.828L24 15.656L21.172 12.828C19.48 11.14 17.152 10 15 10C11.12 10 8 13.312 8 18C8 19.37 8.18 20.704 8.534 22H12.868L17 15.112L23 25.112L24.868 22H34V26H27.132L23 32.888L17 22.888L15.132 26H10.216C11.796 28.748 14.186 31.336 17.29 33.806C18.78 34.99 20.37 36.096 22.132 37.206C22.73 37.584 23.322 37.946 24 38.35C24.678 37.946 25.27 37.584 25.868 37.208C27.63 36.096 29.22 34.99 30.708 33.806C36.67 29.066 40 23.886 40 18C40 13.28 36.926 10 33 10Z" fill="black"/>
<path d="M1.99902 26.0001L5.73702 26.0021L10.215 26.0001H15.131L16.999 22.8881L22.999 32.8881L27.131 26.0001H33.999V22.0001H24.867L22.999 25.1121L16.999 15.1121L12.867 22.0001H8.53302H4.41902H1.99902V26.0001Z" fill="#CC2027"/>
</g>
<defs>
<clipPath id="clip0_1618_48609">
<rect width="48" height="48" fill="white"/>
</clipPath>
</defs>
</svg>
