<svg width="54" height="54" viewBox="0 0 54 54" fill="none" xmlns="http://www.w3.org/2000/svg">
<g clip-path="url(#clip0_2957_69088)">
<path fill-rule="evenodd" clip-rule="evenodd" d="M15.75 4.5V11.25H6.75C6.15326 11.25 5.58097 11.4871 5.15901 11.909C4.73705 12.331 4.5 12.9033 4.5 13.5V45C4.5 45.5967 4.73705 46.169 5.15901 46.591C5.58097 47.0129 6.15326 47.25 6.75 47.25H47.25C47.8467 47.25 48.419 47.0129 48.841 46.591C49.2629 46.169 49.5 45.5967 49.5 45V13.5C49.5 12.9033 49.2629 12.331 48.841 11.909C48.419 11.4871 47.8467 11.25 47.25 11.25H38.25V4.5C38.25 3.90326 38.0129 3.33097 37.591 2.90901C37.169 2.48705 36.5967 2.25 36 2.25H18C17.4033 2.25 16.831 2.48705 16.409 2.90901C15.9871 3.33097 15.75 3.90326 15.75 4.5ZM20.25 11.25V6.75H33.75V11.25H20.25ZM9 29.25V42.75H45V29.25V24.75V15.75H9V24.75V29.25Z" fill="black"/>
<path d="M20.25 31.5H24.75V36H29.25V31.5H33.75V27H29.25V22.5H24.75V27H20.25V31.5Z" fill="#CC2027"/>
</g>
<defs>
<clipPath id="clip0_2957_69088">
<rect width="54" height="54" fill="white"/>
</clipPath>
</defs>
</svg>
