<svg width="54" height="54" viewBox="0 0 54 54" fill="none" xmlns="http://www.w3.org/2000/svg">
<g clip-path="url(#clip0_3038_72061)">
<path d="M38.25 34.3012V49.7632C38.25 49.9622 38.1973 50.1577 38.0971 50.3297C37.9969 50.5017 37.8528 50.644 37.6797 50.7422C37.5065 50.8403 37.3104 50.8908 37.1114 50.8883C36.9123 50.8859 36.7175 50.8308 36.5467 50.7284L27 44.9999L17.4533 50.7284C17.2823 50.8309 17.0873 50.886 16.8881 50.8884C16.6889 50.8907 16.4926 50.84 16.3193 50.7416C16.1461 50.6432 16.0021 50.5006 15.9021 50.3283C15.802 50.156 15.7496 49.9602 15.75 49.7609V34.3034C12.8388 31.9726 10.7235 28.7952 9.69628 25.2102C8.66908 21.6251 8.78075 17.8096 10.0159 14.2908C11.251 10.7719 13.5485 7.72363 16.591 5.56707C19.6335 3.41051 23.2707 2.2522 27 2.2522C30.7293 2.2522 34.3665 3.41051 37.409 5.56707C40.4515 7.72363 42.749 10.7719 43.9841 14.2908C45.2192 17.8096 45.3309 21.6251 44.3037 25.2102C43.2765 28.7952 41.1612 31.9726 38.25 34.3034V34.3012ZM20.25 36.9404V43.8029L27 39.7529L33.75 43.8029V36.9404C31.6054 37.8078 29.3134 38.2525 27 38.2499C24.6866 38.2525 22.3946 37.8078 20.25 36.9404ZM27 33.7499C30.5804 33.7499 34.0142 32.3276 36.5459 29.7959C39.0777 27.2641 40.5 23.8304 40.5 20.2499C40.5 16.6695 39.0777 13.2357 36.5459 10.704C34.0142 8.17226 30.5804 6.74994 27 6.74994C23.4196 6.74994 19.9858 8.17226 17.4541 10.704C14.9223 13.2357 13.5 16.6695 13.5 20.2499C13.5 23.8304 14.9223 27.2641 17.4541 29.7959C19.9858 32.3276 23.4196 33.7499 27 33.7499Z" fill="black"/>
<path d="M27 24.4378L22.0553 27L22.9992 21.5738L19 17.7297L24.5285 16.937L27 12L29.4732 16.937L35 17.7297L31.0008 21.5738L31.943 27L27 24.4378Z" fill="#CC2027"/>
</g>
<defs>
<clipPath id="clip0_3038_72061">
<rect width="54" height="54" fill="white"/>
</clipPath>
</defs>
</svg>
