<svg width="61" height="48" viewBox="0 0 61 48" fill="none" xmlns="http://www.w3.org/2000/svg">
<g clip-path="url(#clip0_2922_76843)">
<path d="M59.2744 1.2L58.7344 1.23L58.3444 1.56C58.2444 1.64 58.1544 1.73 58.0644 1.81C55.5144 4.41 54.1944 7.54 54.1344 11.12C54.1144 12.36 54.1144 13.6 54.1244 14.84V16.4C54.1244 16.5 54.1344 16.6 54.1444 16.77L54.2244 18.18H57.8844V20.1C57.5044 20.05 57.1244 20.04 56.7544 20.13C55.1344 20.48 54.0244 21.88 54.0044 23.61C53.9944 24.45 54.0044 25.3 54.0044 26.14V29.45C54.0044 31.69 54.0044 33.93 54.0044 36.17C54.0044 37.28 54.4844 38.31 55.3144 38.99C55.9244 39.49 56.6744 39.75 57.4444 39.75C57.6644 39.75 57.8944 39.73 58.1144 39.68C59.7444 39.35 60.8844 37.89 60.8944 36.12C60.8944 34.71 60.8944 33.3 60.8944 31.89V2.7L60.9644 1L59.2844 1.21L59.2744 1.2Z" fill="black"/>
<path fill-rule="evenodd" clip-rule="evenodd" d="M30.6971 4.00124C21.5647 3.89022 14.036 11.3032 14.0196 20.4474V20.4474C14.0031 29.5132 21.3727 36.92 30.4679 36.9416C39.5448 36.9631 46.9344 29.5984 46.954 20.496L46.954 20.4893C47.0033 11.5243 39.6976 4.11126 30.6971 4.00124ZM30.6971 4.00124L30.7214 2.00138L30.6971 4.00124ZM10.0196 20.4402C10.04 9.06874 19.3901 -0.136514 30.7457 0.00153263L30.7459 0.0015343C41.93 0.138254 51.0134 9.33217 50.954 20.5076C50.9281 31.8111 41.7508 40.9684 30.4584 40.9416C19.1578 40.9147 9.99911 31.7171 10.0196 20.4402Z" fill="black"/>
<path d="M8.29 1.5C8.29 0.67 7.62 0 6.79 0C6.21 0 5.72 0.33 5.47 0.8C5.22 0.32 4.72 0 4.15 0C3.58 0 3.08 0.33 2.83 0.81C2.57 0.33 2.08 0 1.5 0C0.67 0 0 0.67 0 1.5V3.86C0 5.87 0 7.78 0 9.92C0 10.87 0.42 11.75 1.18 12.41C1.59 12.77 2.1 13.03 2.64 13.21V20.22C1.48 20.8 0.72 21.98 0.7 23.4C0.69 24.24 0.7 25.08 0.7 25.92V29.33C0.7 31.54 0.7 33.75 0.7 35.96C0.7 37.07 1.18 38.1 2.01 38.78C2.62 39.28 3.37 39.54 4.14 39.54C4.36 39.54 4.59 39.52 4.81 39.47C6.44 39.14 7.58 37.68 7.59 35.91C7.59 34.5 7.59 33.09 7.59 31.68V24.07C7.59 23.72 7.59 23.36 7.55 23.02C7.45 22.01 6.93 21.1 6.12 20.51C5.97 20.4 5.8 20.31 5.64 20.23V13.22C7.22 12.71 8.28 11.42 8.28 9.88C8.28 8.44 8.28 5.86 8.28 3.76V1.5H8.29Z" fill="black"/>
<path d="M30.0405 29.2L22.4828 21.6423C22.0127 21.1722 21.6398 20.6141 21.3854 19.9999C21.1309 19.3857 21 18.7274 21 18.0625C21 17.3977 21.1309 16.7394 21.3854 16.1252C21.6398 15.511 22.0127 14.9529 22.4828 14.4828C22.9529 14.0127 23.511 13.6398 24.1252 13.3854C24.7394 13.1309 25.3977 13 26.0625 13C26.7274 13 27.3857 13.1309 27.9999 13.3854C28.6141 13.6398 29.1722 14.0127 29.6423 14.4828L30.0405 14.881L30.4388 14.4828C30.9089 14.0127 31.467 13.6398 32.0812 13.3854C32.6954 13.1309 33.3537 13 34.0185 13C34.6834 13 35.3417 13.1309 35.9559 13.3854C36.5701 13.6398 37.1282 14.0127 37.5983 14.4828C38.0684 14.9529 38.4413 15.511 38.6957 16.1252C38.9501 16.7394 39.0811 17.3977 39.0811 18.0625C39.0811 18.7274 38.9501 19.3857 38.6957 19.9999C38.4413 20.6141 38.0684 21.1722 37.5983 21.6423L30.0405 29.2Z" fill="#CC2027"/>
</g>
<defs>
<clipPath id="clip0_2922_76843">
<rect width="61" height="48" fill="white"/>
</clipPath>
</defs>
</svg>
