<svg width="48" height="48" viewBox="0 0 48 48" fill="none" xmlns="http://www.w3.org/2000/svg">
<g clip-path="url(#clip0_1618_48588)">
<path fill-rule="evenodd" clip-rule="evenodd" d="M4.2002 21H43.8002V22.8C43.8002 30.4971 39.4084 37.1649 33.0002 40.4406V45.6H31.2002V43.8C31.2002 45.6 31.2003 45.6 31.2002 45.6H15.0002V40.4406C8.59202 37.1649 4.2002 30.4971 4.2002 22.8V21ZM29.4002 42V38.1244L30.4795 37.6528C35.6803 35.3805 39.4536 30.4598 40.1013 24.6H7.89907C8.54684 30.4598 12.3201 35.3805 17.5209 37.6528L18.6002 38.1244V42H29.4002Z" fill="black"/>
<path fill-rule="evenodd" clip-rule="evenodd" d="M12.5669 4.13414C13.5873 2.64232 15.1312 1.61595 16.2406 1.19995L17.5046 4.57074C17.014 4.75473 16.0979 5.34836 15.5383 6.16654C15.0541 6.87444 14.8852 7.6294 15.4354 8.59229C16.1422 9.82905 16.5164 11.0036 16.5705 12.1268C16.6254 13.2655 16.3458 14.2419 15.9108 15.0574C15.4876 15.851 14.9301 16.4684 14.4557 16.9321C14.2181 17.1642 13.9847 17.3735 13.795 17.5434L13.7943 17.5441C13.5909 17.7264 13.4533 17.8502 13.3454 17.9581L10.7998 15.4126C10.9828 15.2295 11.1901 15.0438 11.3658 14.8864L11.3915 14.8633C11.5861 14.6889 11.7648 14.5281 11.9395 14.3574C12.2901 14.0148 12.5576 13.6947 12.7344 13.3633C12.8994 13.0538 12.9948 12.7177 12.9747 12.3001C12.9538 11.8671 12.803 11.2416 12.3098 10.3784C10.94 7.98129 11.4711 5.73625 12.5669 4.13414Z" fill="#CC2027"/>
<path fill-rule="evenodd" clip-rule="evenodd" d="M22.8716 4.13414C23.892 2.64232 25.4359 1.61595 26.5453 1.19995L27.8093 4.57074C27.3186 4.75473 26.4026 5.34836 25.843 6.16654C25.3588 6.87444 25.1899 7.6294 25.7401 8.59229C26.4468 9.82905 26.8211 11.0036 26.8752 12.1268C26.9301 13.2655 26.6504 14.2419 26.2155 15.0574C25.7922 15.851 25.2348 16.4684 24.7604 16.9321C24.5228 17.1642 24.2894 17.3735 24.0997 17.5434L24.099 17.5441C23.8955 17.7264 23.758 17.8502 23.6501 17.9581L21.1045 15.4126C21.2875 15.2295 21.4948 15.0438 21.6705 14.8864L21.6962 14.8633C21.8908 14.6889 22.0695 14.5281 22.2442 14.3574C22.5947 14.0148 22.8623 13.6947 23.039 13.3633C23.2041 13.0538 23.2995 12.7177 23.2794 12.3001C23.2585 11.8671 23.1077 11.2416 22.6144 10.3784C21.2447 7.98129 21.7758 5.73625 22.8716 4.13414Z" fill="#CC2027"/>
<path fill-rule="evenodd" clip-rule="evenodd" d="M33.1767 4.13414C34.1971 2.64232 35.7411 1.61595 36.8504 1.19995L38.1145 4.57074C37.6238 4.75473 36.7078 5.34836 36.1482 6.16654C35.664 6.87444 35.4951 7.6294 36.0453 8.59229C36.752 9.82905 37.1262 11.0036 37.1804 12.1268C37.2352 13.2655 36.9556 14.2419 36.5207 15.0574C36.0974 15.851 35.54 16.4684 35.0655 16.9321C34.828 17.1642 34.5945 17.3735 34.4049 17.5434L34.4042 17.5441C34.2007 17.7264 34.0632 17.8502 33.9553 17.9581L31.4097 15.4126C31.5927 15.2295 31.8 15.0438 31.9756 14.8864L32.0013 14.8633C32.196 14.6889 32.3747 14.5281 32.5494 14.3574C32.8999 14.0148 33.1675 13.6947 33.3442 13.3633C33.5093 13.0538 33.6047 12.7177 33.5845 12.3001C33.5637 11.8671 33.4129 11.2416 32.9196 10.3784C31.5498 7.98129 32.0809 5.73625 33.1767 4.13414Z" fill="#CC2027"/>
</g>
<defs>
<clipPath id="clip0_1618_48588">
<rect width="48" height="48" fill="white"/>
</clipPath>
</defs>
</svg>
