<svg width="48" height="48" viewBox="0 0 48 48" fill="none" xmlns="http://www.w3.org/2000/svg">
<g clip-path="url(#clip0_1618_42898)">
<path d="M28 4C31.66 3.99825 35.2099 5.25133 38.0578 7.55025C40.9056 9.84917 42.8792 13.055 43.6494 16.6329C44.4196 20.2109 43.9398 23.9448 42.2901 27.2119C40.6405 30.4789 37.9205 33.0817 34.584 34.586C33.5176 36.9438 31.8951 39.0078 29.8558 40.6009C27.8165 42.1939 25.4212 43.2686 22.8753 43.7327C20.3295 44.1968 17.709 44.0364 15.2388 43.2654C12.7685 42.4943 10.5221 41.1356 8.69227 39.3058C6.86242 37.4759 5.50372 35.2295 4.73268 32.7593C3.96164 30.289 3.80129 27.6686 4.26537 25.1227C4.72945 22.5769 5.80411 20.1816 7.39719 18.1423C8.99027 16.103 11.0542 14.4805 13.4121 13.414C14.6803 10.6078 16.7312 8.227 19.3187 6.55722C21.9063 4.88743 24.9205 3.99953 28 4ZM20.0001 16C18.4242 16 16.8638 16.3104 15.4078 16.9134C13.9519 17.5165 12.6291 18.4004 11.5148 19.5147C10.4005 20.629 9.51655 21.9519 8.9135 23.4078C8.31044 24.8637 8.00005 26.4241 8.00005 28C8.00005 29.5759 8.31044 31.1363 8.9135 32.5922C9.51655 34.0481 10.4005 35.371 11.5148 36.4853C12.6291 37.5996 13.9519 38.4835 15.4078 39.0866C16.8638 39.6896 18.4242 40 20.0001 40C23.1826 40 26.2349 38.7357 28.4853 36.4853C30.7358 34.2348 32 31.1826 32 28C32 24.8174 30.7358 21.7652 28.4853 19.5147C26.2349 17.2643 23.1826 16 20.0001 16ZM22 18V20H26V24H18.0001C17.7502 23.9995 17.5091 24.0927 17.3245 24.261C17.1398 24.4294 17.0249 24.6608 17.0023 24.9096C16.9797 25.1585 17.0511 25.4068 17.2025 25.6057C17.3538 25.8045 17.5742 25.9395 17.8201 25.984L18.0001 26H22C23.3261 26 24.5979 26.5268 25.5356 27.4645C26.4733 28.4021 27 29.6739 27 31C27 32.3261 26.4733 33.5979 25.5356 34.5355C24.5979 35.4732 23.3261 36 22 36V38H18.0001V36H14.0001V32H22C22.2499 32.0005 22.4909 31.9073 22.6756 31.739C22.8603 31.5706 22.9752 31.3392 22.9978 31.0904C23.0204 30.8415 22.949 30.5932 22.7976 30.3943C22.6463 30.1955 22.4259 30.0605 22.18 30.016L22 30H18.0001C16.674 30 15.4022 29.4732 14.4645 28.5355C13.5268 27.5979 13.0001 26.3261 13.0001 25C13.0001 23.6739 13.5268 22.4021 14.4645 21.4645C15.4022 20.5268 16.674 20 18.0001 20V18H22ZM28 8C26.3054 7.99802 24.6297 8.35588 23.0837 9.04992C21.5377 9.74396 20.1567 10.7584 19.0321 12.026C21.2926 11.8888 23.5565 12.233 25.6741 13.0359C27.7916 13.8388 29.7147 15.0821 31.3159 16.6836C32.9172 18.285 34.1603 20.2082 34.9629 22.3259C35.7656 24.4435 36.1095 26.7075 35.972 28.968C37.7905 27.3512 39.0745 25.2199 39.6537 22.8566C40.2329 20.4934 40.08 18.0098 39.2153 15.7354C38.3506 13.4611 36.8149 11.5033 34.8119 10.1218C32.8089 8.74025 30.4333 8.00028 28 8Z" fill="black"/>
<path d="M21.9995 17.9995V19.9995H25.9995V23.9995H17.9995C17.7496 23.9991 17.5086 24.0922 17.3239 24.2605C17.1393 24.4289 17.0243 24.6603 17.0018 24.9092C16.9792 25.158 17.0506 25.4063 17.202 25.6052C17.3533 25.804 17.5736 25.939 17.8195 25.9835L17.9995 25.9995H21.9995C23.3256 25.9995 24.5974 26.5263 25.535 27.464C26.4727 28.4017 26.9995 29.6734 26.9995 30.9995C26.9995 32.3256 26.4727 33.5974 25.535 34.535C24.5974 35.4727 23.3256 35.9995 21.9995 35.9995V37.9995H17.9995V35.9995H13.9995V31.9995H21.9995C22.2494 32 22.4904 31.9069 22.6751 31.7385C22.8597 31.5701 22.9747 31.3387 22.9973 31.0899C23.0198 30.841 22.9484 30.5927 22.7971 30.3938C22.6457 30.195 22.4254 30.06 22.1795 30.0155L21.9995 29.9995H17.9995C16.6734 29.9995 15.4017 29.4727 14.464 28.535C13.5263 27.5974 12.9995 26.3256 12.9995 24.9995C12.9995 23.6734 13.5263 22.4017 14.464 21.464C15.4017 20.5263 16.6734 19.9995 17.9995 19.9995V17.9995H21.9995Z" fill="#CC2027"/>
</g>
<defs>
<clipPath id="clip0_1618_42898">
<rect width="48" height="48" fill="white"/>
</clipPath>
</defs>
</svg>
