<svg width="48" height="48" viewBox="0 0 48 48" fill="none" xmlns="http://www.w3.org/2000/svg">
<g clip-path="url(#clip0_1892_60059)">
<path d="M40 6L44 14V40C44 40.5304 43.7893 41.0391 43.4142 41.4142C43.0391 41.7893 42.5304 42 42 42H6C5.46957 42 4.96086 41.7893 4.58579 41.4142C4.21071 41.0391 4 40.5304 4 40V14.008L8 6H40ZM40 18H8V38H40V18ZM24 20L32 28H26V36H22V28H16L24 20ZM37.528 10H10.472L8.474 14H39.528L37.528 10Z" fill="black"/>
<path d="M24 20L32 28H26V36H22V28H16L24 20Z" fill="#CC2027"/>
</g>
<defs>
<clipPath id="clip0_1892_60059">
<rect width="48" height="48" fill="white"/>
</clipPath>
</defs>
</svg>
