<svg width="54" height="54" viewBox="0 0 54 54" fill="none" xmlns="http://www.w3.org/2000/svg">
<path d="M22.4392 40.5002H24.75V29.2502H29.25V40.5002H31.5607C31.8577 37.7957 33.237 35.5637 35.4757 33.1269C35.73 32.8524 37.3477 31.1762 37.539 30.9377C39.1281 28.9524 40.1242 26.5585 40.4125 24.0319C40.7008 21.5053 40.2696 18.9486 39.1685 16.6563C38.0675 14.3641 36.3414 12.4294 34.189 11.0751C32.0366 9.7208 29.5454 9.002 27.0024 9.00145C24.4594 9.00091 21.9679 9.71865 19.815 11.072C17.662 12.4254 15.935 14.3593 14.833 16.6512C13.731 18.943 13.2987 21.4995 13.5859 24.0262C13.8731 26.5529 14.8682 28.9472 16.4565 30.9332C16.65 31.1739 18.2722 32.8524 18.522 33.1247C20.763 35.5637 22.1422 37.7957 22.4392 40.5002ZM22.5 45.0002V47.2502H31.5V45.0002H22.5ZM12.9465 33.7502C10.8274 31.1026 9.49935 27.9102 9.11532 24.5409C8.73128 21.1715 9.30687 17.7622 10.7758 14.7056C12.2447 11.6491 14.5472 9.06965 17.418 7.2645C20.2888 5.45935 23.6112 4.5019 27.0024 4.50244C30.3936 4.50298 33.7157 5.4615 36.5859 7.26757C39.4561 9.07364 41.7578 11.6538 43.2257 14.7108C44.6937 17.7678 45.2682 21.1773 44.8831 24.5466C44.498 27.9158 43.1689 31.1078 41.049 33.7547C39.654 35.4917 36 38.2502 36 41.6252V47.2502C36 48.4437 35.5259 49.5882 34.6819 50.4322C33.838 51.2761 32.6934 51.7502 31.5 51.7502H22.5C21.3065 51.7502 20.1619 51.2761 19.318 50.4322C18.4741 49.5882 18 48.4437 18 47.2502V41.6252C18 38.2502 14.3437 35.4917 12.9465 33.7502Z" fill="black"/>
<path fill-rule="evenodd" clip-rule="evenodd" d="M22.4392 40.5H24.75V29.25H29.25V40.5H31.5608H36V47.25C36 48.4435 35.5259 49.5881 34.682 50.432C33.8381 51.2759 32.6935 51.75 31.5 51.75H22.5C21.3065 51.75 20.1619 51.2759 19.318 50.432C18.4741 49.5881 18 48.4435 18 47.25V40.5H22.4392ZM22.5 47.25V45H31.5V47.25H22.5Z" fill="#CC2027"/>
</svg>
