<svg width="54" height="54" viewBox="0 0 54 54" fill="none" xmlns="http://www.w3.org/2000/svg">
<path d="M27 31.5V36C23.4196 36 19.9858 37.4223 17.4541 39.9541C14.9223 42.4858 13.5 45.9196 13.5 49.5H9C9 44.7261 10.8964 40.1477 14.2721 36.7721C17.6477 33.3964 22.2261 31.5 27 31.5ZM27 29.25C19.5413 29.25 13.5 23.2087 13.5 15.75C13.5 8.29125 19.5413 2.25 27 2.25C34.4587 2.25 40.5 8.29125 40.5 15.75C40.5 23.2087 34.4587 29.25 27 29.25ZM27 24.75C31.9725 24.75 36 20.7225 36 15.75C36 10.7775 31.9725 6.75 27 6.75C22.0275 6.75 18 10.7775 18 15.75C18 20.7225 22.0275 24.75 27 24.75ZM40.5 48.375L33.8872 51.8512L35.1495 44.4893L29.8013 39.2738L37.1947 38.1982L40.5 31.5L43.8075 38.1982L51.1987 39.2738L45.8505 44.4893L47.1105 51.8512L40.5 48.375Z" fill="black"/>
<path d="M40.4995 48.375L33.8868 51.8512L35.149 44.4893L29.8008 39.2738L37.1943 38.1982L40.4995 31.5L43.807 38.1982L51.1983 39.2738L45.85 44.4893L47.11 51.8512L40.4995 48.375Z" fill="#CC2027"/>
</svg>
