<svg width="15" height="14" viewBox="0 0 15 14" fill="none" xmlns="http://www.w3.org/2000/svg">
<path d="M4.1281 13.8258V4.7474H1.11325V13.8258H4.12841H4.1281ZM2.6213 3.50811C3.67242 3.50811 4.32681 2.811 4.32681 1.9398C4.30714 1.04875 3.67242 0.371094 2.64129 0.371094C1.60946 0.371094 0.935547 1.04875 0.935547 1.93972C0.935547 2.81092 1.5897 3.50803 2.60155 3.50803H2.62107L2.6213 3.50811ZM5.79685 13.8258H8.81146V8.75656C8.81146 8.48559 8.83114 8.21391 8.91078 8.02038C9.12862 7.47804 9.62467 6.91665 10.4577 6.91665C11.5483 6.91665 11.9849 7.74909 11.9849 8.96963V13.8258H14.9994V8.62053C14.9994 5.83214 13.5123 4.53456 11.5288 4.53456C9.90264 4.53456 9.18843 5.44428 8.79163 6.06388H8.8117V4.74772H5.79701C5.83636 5.59938 5.79677 13.8261 5.79677 13.8261L5.79685 13.8258Z" fill="#121212"/>
</svg>
