<svg width="54" height="54" viewBox="0 0 54 54" fill="none" xmlns="http://www.w3.org/2000/svg">
<g clip-path="url(#clip0_3041_73113)">
<path d="M27 24.75C29.9837 24.75 32.8452 25.9353 34.955 28.045C37.0647 30.1548 38.25 33.0163 38.25 36V49.5H33.75V36C33.7501 34.2783 33.0923 32.6216 31.9111 31.3689C30.73 30.1162 29.1148 29.3623 27.396 29.2612L27 29.25C25.2783 29.2499 23.6216 29.9077 22.3689 31.0889C21.1162 32.27 20.3623 33.8852 20.2613 35.604L20.25 36V49.5H15.75V36C15.75 33.0163 16.9353 30.1548 19.045 28.045C21.1548 25.9353 24.0163 24.75 27 24.75ZM12.375 31.5C13.0028 31.5 13.6125 31.5742 14.1975 31.7115C13.8128 32.8568 13.585 34.0488 13.5202 35.2552L13.5 36V36.1935C13.2414 36.101 12.9724 36.0405 12.699 36.0135L12.375 36C11.536 36 10.7271 36.3126 10.1061 36.8766C9.48499 37.4407 9.09629 38.2159 9.01575 39.051L9 39.375V49.5H4.5V39.375C4.5 37.2864 5.32969 35.2834 6.80653 33.8065C8.28338 32.3297 10.2864 31.5 12.375 31.5ZM41.625 31.5C43.7136 31.5 45.7166 32.3297 47.1935 33.8065C48.6703 35.2834 49.5 37.2864 49.5 39.375V49.5H45V39.375C45 38.536 44.6874 37.7271 44.1234 37.1061C43.5593 36.485 42.7841 36.0963 41.949 36.0158L41.625 36C41.2313 36 40.8532 36.0675 40.5 36.1912V36C40.5 34.5015 40.257 33.0615 39.8047 31.716C40.3875 31.5742 40.9972 31.5 41.625 31.5ZM12.375 18C13.8668 18 15.2976 18.5926 16.3525 19.6475C17.4074 20.7024 18 22.1332 18 23.625C18 25.1168 17.4074 26.5476 16.3525 27.6025C15.2976 28.6574 13.8668 29.25 12.375 29.25C10.8832 29.25 9.45242 28.6574 8.39752 27.6025C7.34263 26.5476 6.75 25.1168 6.75 23.625C6.75 22.1332 7.34263 20.7024 8.39752 19.6475C9.45242 18.5926 10.8832 18 12.375 18ZM41.625 18C43.1168 18 44.5476 18.5926 45.6025 19.6475C46.6574 20.7024 47.25 22.1332 47.25 23.625C47.25 25.1168 46.6574 26.5476 45.6025 27.6025C44.5476 28.6574 43.1168 29.25 41.625 29.25C40.1332 29.25 38.7024 28.6574 37.6475 27.6025C36.5926 26.5476 36 25.1168 36 23.625C36 22.1332 36.5926 20.7024 37.6475 19.6475C38.7024 18.5926 40.1332 18 41.625 18ZM12.375 22.5C12.0766 22.5 11.7905 22.6185 11.5795 22.8295C11.3685 23.0405 11.25 23.3266 11.25 23.625C11.25 23.9234 11.3685 24.2095 11.5795 24.4205C11.7905 24.6315 12.0766 24.75 12.375 24.75C12.6734 24.75 12.9595 24.6315 13.1705 24.4205C13.3815 24.2095 13.5 23.9234 13.5 23.625C13.5 23.3266 13.3815 23.0405 13.1705 22.8295C12.9595 22.6185 12.6734 22.5 12.375 22.5ZM41.625 22.5C41.3266 22.5 41.0405 22.6185 40.8295 22.8295C40.6185 23.0405 40.5 23.3266 40.5 23.625C40.5 23.9234 40.6185 24.2095 40.8295 24.4205C41.0405 24.6315 41.3266 24.75 41.625 24.75C41.9234 24.75 42.2095 24.6315 42.4205 24.4205C42.6315 24.2095 42.75 23.9234 42.75 23.625C42.75 23.3266 42.6315 23.0405 42.4205 22.8295C42.2095 22.6185 41.9234 22.5 41.625 22.5ZM27 4.5C29.3869 4.5 31.6761 5.44821 33.364 7.13604C35.0518 8.82387 36 11.1131 36 13.5C36 15.8869 35.0518 18.1761 33.364 19.864C31.6761 21.5518 29.3869 22.5 27 22.5C24.6131 22.5 22.3239 21.5518 20.636 19.864C18.9482 18.1761 18 15.8869 18 13.5C18 11.1131 18.9482 8.82387 20.636 7.13604C22.3239 5.44821 24.6131 4.5 27 4.5ZM27 9C25.8065 9 24.6619 9.47411 23.818 10.318C22.9741 11.1619 22.5 12.3065 22.5 13.5C22.5 14.6935 22.9741 15.8381 23.818 16.682C24.6619 17.5259 25.8065 18 27 18C28.1935 18 29.3381 17.5259 30.182 16.682C31.0259 15.8381 31.5 14.6935 31.5 13.5C31.5 12.3065 31.0259 11.1619 30.182 10.318C29.3381 9.47411 28.1935 9 27 9Z" fill="black"/>
<path d="M27 24.75C29.9837 24.75 32.8452 25.9353 34.955 28.045C37.0647 30.1548 38.25 33.0163 38.25 36V49.5H33.75V36C33.7501 34.2783 33.0923 32.6216 31.9111 31.3689C30.73 30.1162 29.1148 29.3623 27.396 29.2612L27 29.25C25.2783 29.2499 23.6216 29.9077 22.3689 31.0889C21.1162 32.27 20.3623 33.8852 20.2613 35.604L20.25 36V49.5H15.75V36C15.75 33.0163 16.9353 30.1548 19.045 28.045C21.1548 25.9353 24.0163 24.75 27 24.75ZM27 4.5C29.3869 4.5 31.6761 5.44821 33.364 7.13604C35.0518 8.82387 36 11.1131 36 13.5C36 15.8869 35.0518 18.1761 33.364 19.864C31.6761 21.5518 29.3869 22.5 27 22.5C24.6131 22.5 22.3239 21.5518 20.636 19.864C18.9482 18.1761 18 15.8869 18 13.5C18 11.1131 18.9482 8.82387 20.636 7.13604C22.3239 5.44821 24.6131 4.5 27 4.5ZM27 9C25.8065 9 24.6619 9.47411 23.818 10.318C22.9741 11.1619 22.5 12.3065 22.5 13.5C22.5 14.6935 22.9741 15.8381 23.818 16.682C24.6619 17.5259 25.8065 18 27 18C28.1935 18 29.3381 17.5259 30.182 16.682C31.0259 15.8381 31.5 14.6935 31.5 13.5C31.5 12.3065 31.0259 11.1619 30.182 10.318C29.3381 9.47411 28.1935 9 27 9Z" fill="#CC2027"/>
</g>
<defs>
<clipPath id="clip0_3041_73113">
<rect width="54" height="54" fill="white"/>
</clipPath>
</defs>
</svg>
