<svg width="48" height="48" viewBox="0 0 48 48" fill="none" xmlns="http://www.w3.org/2000/svg">
<g clip-path="url(#clip0_1892_57714)">
<path d="M4 44C4 39.7565 5.68571 35.6869 8.68629 32.6863C11.6869 29.6857 15.7565 28 20 28C24.2435 28 28.3131 29.6857 31.3137 32.6863C34.3143 35.6869 36 39.7565 36 44H32C32 40.8174 30.7357 37.7652 28.4853 35.5147C26.2348 33.2643 23.1826 32 20 32C16.8174 32 13.7652 33.2643 11.5147 35.5147C9.26428 37.7652 8 40.8174 8 44H4ZM20 26C13.37 26 8 20.63 8 14C8 7.37 13.37 2 20 2C26.63 2 32 7.37 32 14C32 20.63 26.63 26 20 26ZM20 22C24.42 22 28 18.42 28 14C28 9.58 24.42 6 20 6C15.58 6 12 9.58 12 14C12 18.42 15.58 22 20 22ZM36.568 29.406C39.3787 30.6719 41.764 32.7225 43.4372 35.3114C45.1104 37.9004 46.0003 40.9174 46 44H42C42.0005 41.688 41.3331 39.425 40.0782 37.4832C38.8232 35.5413 37.0342 34.0033 34.926 33.054L36.566 29.406H36.568ZM35.192 6.826C37.2071 7.65659 38.9299 9.06708 40.142 10.8785C41.3541 12.6898 42.0008 14.8205 42 17C42.0008 19.7447 40.9754 22.3905 39.1251 24.4177C37.2748 26.4449 34.7333 27.7069 32 27.956V23.93C33.4819 23.7178 34.8567 23.036 35.9226 21.9849C36.9885 20.9338 37.6894 19.5686 37.9223 18.0899C38.1552 16.6111 37.908 15.0966 37.2168 13.7687C36.5256 12.4408 35.4269 11.3695 34.082 10.712L35.192 6.826Z" fill="#CC2027"/>
<path d="M3.99805 44.0001C3.99805 39.7567 5.68376 35.687 8.68434 32.6864C11.6849 29.6858 15.7546 28.0001 19.998 28.0001C24.2415 28.0001 28.3112 29.6858 31.3118 32.6864C34.3123 35.687 35.998 39.7567 35.998 44.0001H31.998C31.998 40.8175 30.7338 37.7653 28.4833 35.5148C26.2329 33.2644 23.1806 32.0001 19.998 32.0001C16.8154 32.0001 13.7632 33.2644 11.5128 35.5148C9.26233 37.7653 7.99805 40.8175 7.99805 44.0001H3.99805ZM19.998 26.0001C13.368 26.0001 7.99805 20.6301 7.99805 14.0001C7.99805 7.37012 13.368 2.00012 19.998 2.00012C26.628 2.00012 31.998 7.37012 31.998 14.0001C31.998 20.6301 26.628 26.0001 19.998 26.0001ZM19.998 22.0001C24.418 22.0001 27.998 18.4201 27.998 14.0001C27.998 9.58012 24.418 6.00012 19.998 6.00012C15.578 6.00012 11.998 9.58012 11.998 14.0001C11.998 18.4201 15.578 22.0001 19.998 22.0001Z" fill="#121212"/>
</g>
<defs>
<clipPath id="clip0_1892_57714">
<rect width="48" height="48" fill="white"/>
</clipPath>
</defs>
</svg>
