<svg width="48" height="48" viewBox="0 0 48 48" fill="none" xmlns="http://www.w3.org/2000/svg">
<g clip-path="url(#clip0_1892_57737)">
<path d="M8 12.286V37.934L18.13 33.594L30.13 39.594L40 35.36V9.714L42.606 8.598C42.7582 8.53276 42.9242 8.50634 43.0891 8.52108C43.254 8.53583 43.4126 8.59129 43.5508 8.68249C43.689 8.77368 43.8024 8.89776 43.8808 9.04359C43.9592 9.18942 44.0001 9.35243 44 9.518V38L30 44L18 38L5.394 43.402C5.24183 43.4672 5.07584 43.4937 4.91093 43.4789C4.74602 43.4642 4.58736 43.4087 4.44917 43.3175C4.31099 43.2263 4.19761 43.1022 4.11921 42.9564C4.04082 42.8106 3.99985 42.6476 4 42.482V14L8 12.286ZM32.486 22.486L24 30.97L15.514 22.486C13.836 20.8077 12.6933 18.6695 12.2304 16.3418C11.7676 14.0141 12.0053 11.6014 12.9136 9.40876C13.822 7.21617 15.36 5.34214 17.3334 4.02366C19.3067 2.70517 21.6267 2.00143 24 2.00143C26.3733 2.00143 28.6933 2.70517 30.6666 4.02366C32.64 5.34214 34.178 7.21617 35.0864 9.40876C35.9947 11.6014 36.2324 14.0141 35.7696 16.3418C35.3067 18.6695 34.164 20.8077 32.486 22.486ZM24 25.314L29.656 19.656C30.7751 18.5373 31.5372 17.1118 31.8461 15.5599C32.155 14.008 31.9967 12.3993 31.3913 10.9374C30.7858 9.47543 29.7605 8.22586 28.4448 7.3467C27.1292 6.46754 25.5824 5.99829 24 5.99829C22.4176 5.99829 20.8708 6.46754 19.5552 7.3467C18.2395 8.22586 17.2142 9.47543 16.6087 10.9374C16.0033 12.3993 15.845 14.008 16.1539 15.5599C16.4628 17.1118 17.2249 18.5373 18.344 19.656L24 25.314Z" fill="black"/>
<path d="M32.486 22.486L24 30.97L15.514 22.486C13.836 20.8077 12.6933 18.6695 12.2304 16.3418C11.7676 14.0141 12.0053 11.6014 12.9136 9.40876C13.822 7.21617 15.36 5.34214 17.3334 4.02366C19.3067 2.70517 21.6267 2.00143 24 2.00143C26.3733 2.00143 28.6933 2.70517 30.6666 4.02366C32.64 5.34214 34.1781 7.21617 35.0864 9.40876C35.9947 11.6014 36.2324 14.0141 35.7696 16.3418C35.3067 18.6695 34.164 20.8077 32.486 22.486ZM24 25.314L29.656 19.656C30.7751 18.5373 31.5372 17.1118 31.8461 15.5599C32.155 14.008 31.9967 12.3993 31.3913 10.9374C30.7858 9.47543 29.7605 8.22586 28.4448 7.3467C27.1292 6.46754 25.5824 5.99829 24 5.99829C22.4177 5.99829 20.8708 6.46754 19.5552 7.3467C18.2395 8.22586 17.2142 9.47543 16.6087 10.9374C16.0033 12.3993 15.845 14.008 16.1539 15.5599C16.4628 17.1118 17.2249 18.5373 18.344 19.656L24 25.314Z" fill="#CC2027"/>
</g>
<defs>
<clipPath id="clip0_1892_57737">
<rect width="48" height="48" fill="white"/>
</clipPath>
</defs>
</svg>
