<svg width="16" height="14" viewBox="0 0 16 14" fill="none" xmlns="http://www.w3.org/2000/svg">
<path d="M15.9288 2.0746C15.4113 2.29414 14.8672 2.44702 14.3099 2.52945C14.5705 2.48543 14.9538 2.02324 15.1064 1.83617C15.3382 1.55398 15.5148 1.23184 15.6274 0.886105C15.6274 0.860428 15.6534 0.823746 15.6274 0.805405C15.6143 0.798341 15.5995 0.79464 15.5846 0.79464C15.5696 0.79464 15.5549 0.798341 15.5418 0.805405C14.9367 1.12836 14.2928 1.37485 13.6252 1.53904C13.6019 1.54605 13.5771 1.54668 13.5535 1.54086C13.5299 1.53504 13.5084 1.523 13.4912 1.50603C13.4392 1.44504 13.3833 1.38745 13.3237 1.33362C13.0514 1.09316 12.7425 0.896342 12.4082 0.750382C11.957 0.567918 11.4696 0.488897 10.9828 0.519286C10.5105 0.548686 10.0494 0.673547 9.62819 0.886105C9.21337 1.1102 8.84879 1.41465 8.55637 1.78114C8.24877 2.15836 8.0267 2.59613 7.90509 3.06501C7.80481 3.51101 7.79344 3.97196 7.8716 4.42224C7.8716 4.49927 7.8716 4.51027 7.80461 4.49927C5.15112 4.11411 2.97399 3.18606 1.19507 1.19423C1.11691 1.1062 1.07598 1.1062 1.01271 1.19423C0.238619 2.35338 0.614499 4.18747 1.58211 5.09352C1.71237 5.21457 1.84634 5.33195 1.98777 5.44199C1.54412 5.41095 1.11131 5.29245 0.714982 5.09352C0.64055 5.04583 0.599613 5.07151 0.595891 5.15954C0.585341 5.2816 0.585341 5.40431 0.595891 5.52636C0.673544 6.11129 0.907417 6.6654 1.27359 7.13202C1.63977 7.59864 2.12511 7.96103 2.67998 8.18213C2.81525 8.23924 2.95619 8.28227 3.10052 8.31052C2.68981 8.39021 2.26859 8.40261 1.85379 8.3472C1.76447 8.32886 1.73098 8.37654 1.76447 8.46091C2.31154 9.92819 3.49873 10.3757 4.36958 10.6251C4.48867 10.6435 4.60776 10.6435 4.74174 10.6728C4.74174 10.6728 4.74174 10.6728 4.71941 10.6948C4.46262 11.157 3.4243 11.4688 2.94794 11.6302C2.07845 11.9381 1.15142 12.0557 0.231175 11.975C0.0860334 11.953 0.0525391 11.9567 0.0153232 11.975C-0.0218927 11.9934 0.0153232 12.0337 0.0562607 12.0704C0.24234 12.1915 0.42842 12.2978 0.621942 12.4005C1.19806 12.7103 1.80713 12.9563 2.43808 13.1342C5.70563 14.0219 9.38256 13.3689 11.8351 10.9663C13.7629 9.08084 14.4402 6.48009 14.4402 3.87568C14.4402 3.77664 14.563 3.71795 14.6337 3.66659C15.1214 3.29203 15.5514 2.84968 15.9102 2.35338C15.9724 2.2794 16.0042 2.1852 15.9995 2.08927C15.9995 2.03425 15.9995 2.04525 15.9288 2.0746Z" fill="#121212"/>
</svg>
