<svg width="40" height="40" viewBox="0 0 40 40" fill="none" xmlns="http://www.w3.org/2000/svg">
<path d="M29.5832 15.543C29.3541 14.7452 28.6764 14.1159 27.8142 13.9002C26.2552 13.5132 20 13.5132 20 13.5132C20 13.5132 13.748 13.5132 12.1858 13.9002C11.3268 14.113 10.6491 14.7423 10.4168 15.543C10 16.9907 10 20.0132 10 20.0132C10 20.0132 10 23.0357 10.4168 24.4834C10.6459 25.2811 11.3236 25.9105 12.1858 26.1261C13.748 26.5132 20 26.5132 20 26.5132C20 26.5132 26.2552 26.5132 27.8142 26.1261C28.6732 25.9134 29.3509 25.2841 29.5832 24.4834C30 23.0357 30 20.0132 30 20.0132C30 20.0132 30 16.9907 29.5832 15.543Z" fill="#121212"/>
<path d="M18.0019 22.7993L23.1976 20.0132L18.0019 17.227V22.7993Z" fill="#121212"/>
<path d="M18.0019 22.7993L23.1976 20.0132L18.0019 17.227V22.7993Z" fill="#121212"/>
<path d="M18.002 22.7993L23.1976 20.0132L18.002 17.2271V22.7993Z" fill="white"/>
</svg>
