<svg width="42" height="42" viewBox="0 0 42 42" fill="none" xmlns="http://www.w3.org/2000/svg">
<path d="M24.3037 0.5H42.0003V8.05056H24.3037V0.5Z" fill="#CC2027"/>
<path fill-rule="evenodd" clip-rule="evenodd" d="M12.9728 0.5H0.000337601V7.94751H12.9728C13.4272 7.94299 13.8781 8.02771 14.2998 8.19693C14.7207 8.36613 15.1041 8.61655 15.4281 8.9338C15.7521 9.25158 16.0106 9.62981 16.1887 10.0471C16.3651 10.4647 16.4578 10.9128 16.4615 11.366V21.4578H24.3037V11.818C24.3037 5.35752 19.4416 0.5 12.9728 0.5Z" fill="white"/>
<path d="M0.384766 21.4551C0.77533 32.5821 9.91875 41.4826 21.141 41.4826C32.3632 41.4826 41.5067 32.5821 41.8972 21.4551H33.5437C33.16 27.9716 27.7538 33.1378 21.141 33.1378C14.5282 33.1378 9.122 27.9716 8.73832 21.4551H0.384766Z" fill="white"/>
</svg>
