<svg width="65" height="64" viewBox="0 0 65 64" fill="none" xmlns="http://www.w3.org/2000/svg">
<path d="M37.5332 0.775391H64.4995V12.281H37.5332V0.775391Z" fill="#CC2027"/>
<path fill-rule="evenodd" clip-rule="evenodd" d="M20.267 0.775391H0.499493V12.124H20.267C20.9595 12.1171 21.6466 12.2462 22.2892 12.504C22.9305 12.7619 23.5147 13.1435 24.0084 13.6269C24.5022 14.1111 24.896 14.6875 25.1675 15.3233C25.4363 15.9596 25.5775 16.6425 25.5832 17.3332V32.7111H37.5332V18.0219C37.5332 8.17733 30.1243 0.775391 20.267 0.775391Z" fill="#121212"/>
<path d="M1.08594 32.7068C1.68108 49.6622 15.6139 63.2249 32.7145 63.2249C49.815 63.2249 63.7479 49.6622 64.343 32.7068H51.6138C51.0291 42.6367 42.7912 50.509 32.7145 50.509C22.6378 50.509 14.3998 42.6367 13.8152 32.7068H1.08594Z" fill="#121212"/>
</svg>
