<svg width="220" height="110" viewBox="0 0 220 110" fill="none" xmlns="http://www.w3.org/2000/svg">
<g clip-path="url(#clip0_2922_66418)">
<path d="M125.8 55.03C125.787 59.1288 124.152 63.0558 121.254 65.9541C118.356 68.8524 114.429 70.4866 110.33 70.5H104.38V63.7H110.33C112.629 63.7 114.835 62.7866 116.461 61.1606C118.087 59.5347 119 57.3294 119 55.03C119 52.7306 118.087 50.5253 116.461 48.8994C114.835 47.2734 112.629 46.36 110.33 46.36H104.38V39.56H110.33C114.429 39.5734 118.356 41.2076 121.254 44.1059C124.152 47.0042 125.787 50.9312 125.8 55.03ZM92.82 39.56V52.14H82.11L78.2 58.94H99.62V39.56H92.82ZM170 49.25C170 54.8859 167.761 60.2909 163.776 64.276C159.791 68.2612 154.386 70.5 148.75 70.5V82.06H130.39V73.05C127.864 75.9175 124.749 78.2066 121.258 79.7615C117.767 81.3163 113.981 82.1003 110.16 82.06H92.82V70.5H79.22L72.42 82.06H51L82.45 28H110.33C114.14 28.0322 117.902 28.8489 121.383 30.399C124.863 31.9492 127.987 34.1996 130.56 37.01V28H148.92C154.529 28.0359 159.896 30.2917 163.846 34.274C167.797 38.2562 170.009 43.6408 170 49.25ZM110.33 75.26C114.171 75.2694 117.935 74.188 121.186 72.1415C124.436 70.095 127.038 67.1677 128.69 63.7H137.36V75.26H142.12V63.7H148.92C150.818 63.7022 152.698 63.33 154.452 62.6046C156.207 61.8792 157.8 60.8149 159.143 59.4727C160.485 58.1304 161.549 56.5366 162.275 54.7824C163 53.0283 163.372 51.1482 163.37 49.25C163.334 45.3993 161.777 41.719 159.038 39.012C156.299 36.3049 152.601 34.7909 148.75 34.8H137.19V52.14H130.39C129.661 47.3336 127.239 42.9455 123.561 39.7664C119.884 36.5873 115.191 34.826 110.33 34.8H86.53L62.9 75.26H68.51L75.31 63.7H99.62V75.26H110.33ZM148.75 39.56H141.95V46.36H148.75C149.13 46.3577 149.507 46.431 149.859 46.5754C150.21 46.7198 150.53 46.9326 150.799 47.2014C151.067 47.4702 151.28 47.7897 151.425 48.1414C151.569 48.493 151.642 48.8699 151.64 49.25C151.619 50.0097 151.307 50.7324 150.77 51.2698C150.232 51.8072 149.51 52.1186 148.75 52.14H141.95V58.94H148.75C151.32 58.94 153.785 57.9191 155.602 56.1019C157.419 54.2846 158.44 51.8199 158.44 49.25C158.413 46.6883 157.384 44.239 155.573 42.4275C153.761 40.616 151.312 39.5865 148.75 39.56Z" fill="white"/>
<path d="M158.27 78.6598C158.27 79.1977 158.111 79.7236 157.812 80.1709C157.513 80.6182 157.088 80.9669 156.591 81.1727C156.094 81.3786 155.547 81.4325 155.019 81.3275C154.492 81.2226 154.007 80.9635 153.627 80.5831C153.246 80.2027 152.987 79.718 152.882 79.1904C152.777 78.6628 152.831 78.1159 153.037 77.6189C153.243 77.1219 153.592 76.697 154.039 76.3982C154.486 76.0993 155.012 75.9398 155.55 75.9398C155.908 75.9352 156.264 76.0024 156.596 76.1375C156.928 76.2726 157.23 76.4728 157.484 76.7263C157.737 76.9798 157.937 77.2814 158.072 77.6135C158.207 77.9456 158.275 78.3013 158.27 78.6598ZM158.95 78.6598C158.95 77.9873 158.751 77.33 158.377 76.7708C158.003 76.2117 157.472 75.7759 156.851 75.5186C156.23 75.2612 155.546 75.1939 154.887 75.3251C154.227 75.4563 153.621 75.7801 153.146 76.2556C152.67 76.7311 152.347 77.3369 152.215 77.9965C152.084 78.656 152.151 79.3396 152.409 79.9609C152.666 80.5822 153.102 81.1132 153.661 81.4868C154.22 81.8604 154.878 82.0598 155.55 82.0598C156.452 82.0598 157.317 81.7016 157.954 81.0639C158.592 80.4263 158.95 79.5615 158.95 78.6598Z" fill="white"/>
<path d="M155.72 77.1301C155.9 77.1301 156.073 77.2018 156.201 77.3293C156.328 77.4568 156.4 77.6298 156.4 77.8101C156.4 77.9905 156.328 78.1634 156.201 78.2909C156.073 78.4185 155.9 78.4901 155.72 78.4901H155.04V77.1301H155.72ZM156.57 76.9601C156.338 76.7468 156.035 76.6259 155.72 76.6201H154.36V80.7001H154.87V79.1701H155.55L156.4 80.7001H157.08L156.06 79.0001C156.23 79.0001 156.4 78.8301 156.57 78.6601C156.705 78.4606 156.765 78.2197 156.74 77.9801C156.813 77.8118 156.836 77.626 156.806 77.445C156.775 77.2641 156.694 77.0957 156.57 76.9601Z" fill="white"/>
</g>
<defs>
<clipPath id="clip0_2922_66418">
<rect width="119" height="54.4" fill="white" transform="translate(51 28)"/>
</clipPath>
</defs>
</svg>
