<svg width="220" height="110" viewBox="0 0 220 110" fill="none" xmlns="http://www.w3.org/2000/svg">
<path d="M75.6504 44.1507H76.7763C77.518 44.1507 78.2597 44.1634 78.9882 44.138C79.2664 44.1252 79.4121 44.2271 79.5578 44.4435C81.7433 47.8556 83.9288 51.255 86.1143 54.6671C86.207 54.8199 86.3129 54.96 86.4454 55.1637C86.6706 54.8072 86.8693 54.5143 87.0547 54.2088C89.1077 50.9749 91.1608 47.7411 93.2006 44.5072C93.3595 44.2526 93.5317 44.138 93.8496 44.1507C94.8165 44.1762 95.7702 44.1634 96.7371 44.1507C97.002 44.1507 97.0814 44.2271 97.0814 44.4817C97.0814 51.0513 97.0814 57.6209 97.0814 64.1777C97.0814 64.2414 97.0682 64.2923 97.0682 64.3815H93.5847L93.5847 49.7272C93.5582 49.7145 93.5184 49.7017 93.492 49.689C91.121 53.3558 88.7633 57.0225 86.3527 60.7529C83.9685 57.0734 81.6108 53.4321 79.2531 49.7781C79.2267 49.7909 79.2002 49.7909 79.1737 49.8036L79.1737 64.3815H75.6504L75.6504 44.1507Z" fill="white"/>
<path d="M58.2715 70.5817L58.2715 40C58.4304 40.0637 58.5496 40.1146 58.6688 40.1655C61.1457 41.4514 63.6227 42.7373 66.0996 44.0105C66.285 44.1124 66.3644 44.2269 66.3644 44.4306C66.3644 51.013 66.3645 57.5825 66.3512 64.1649C66.3512 64.3049 66.2453 64.4832 66.1393 64.5723C63.6359 66.5075 61.1193 68.43 58.6026 70.3652C58.5231 70.4416 58.4304 70.4925 58.2715 70.5817Z" fill="white"/>
<path d="M47.8086 66.6728L47.8086 42.6098C48.1 42.6862 48.3516 42.7626 48.6165 42.8262C50.4179 43.3355 52.2061 43.8448 54.0074 44.3541C54.2591 44.4304 54.365 44.5323 54.365 44.7997C54.3518 51.0764 54.3518 57.3532 54.365 63.6299C54.365 63.8209 54.3518 63.9737 54.1266 64.0628C52.0868 64.9159 50.0471 65.7689 48.0073 66.6219C47.9675 66.6474 47.9146 66.6601 47.8086 66.6728Z" fill="white"/>
<path d="M129.452 44.1508L129.452 55.5585C129.611 55.4057 129.717 55.3293 129.809 55.2402C131.438 53.6614 133.068 52.0827 134.697 50.504C134.896 50.313 135.081 50.2493 135.359 50.2493C136.617 50.2621 137.889 50.2493 139.121 50.2493C137.028 52.2737 134.922 54.298 132.803 56.3478C135.147 59.0724 137.412 61.7079 139.717 64.3943C139.558 64.407 139.452 64.4325 139.346 64.4325C138.154 64.4325 136.962 64.4325 135.783 64.4452C135.545 64.4452 135.399 64.3688 135.253 64.1906C133.677 62.3063 132.101 60.422 130.525 58.5377C130.419 58.4231 130.326 58.2958 130.207 58.1685C129.995 58.3595 129.77 58.5122 129.611 58.7159C129.518 58.8305 129.465 59.0215 129.465 59.1743C129.452 60.7785 129.465 62.37 129.465 63.9742V64.4198H126.008V63.9869C126.008 57.5446 126.008 51.0896 126.008 44.6473C126.008 44.1763 126.008 44.1763 126.498 44.1763C127.346 44.1763 128.207 44.1763 129.054 44.1763H129.452V44.1508Z" fill="white"/>
<path d="M153.612 58.3463L148.128 58.3463L142.697 58.3463C142.777 59.7596 143.916 61.0964 145.466 61.5802C147.333 62.1659 149.148 61.8858 150.883 61.0964C151.545 60.8036 152.168 60.4089 152.817 60.0524C152.83 60.1542 152.843 60.2561 152.843 60.3579C152.843 61.2237 152.83 62.0895 152.857 62.9552C152.857 63.1971 152.777 63.3244 152.565 63.439C150.578 64.4958 148.446 64.9032 146.194 64.6995C144.313 64.534 142.658 63.8974 141.307 62.586C140.061 61.3638 139.426 59.8741 139.253 58.2063C139.055 56.3093 139.386 54.5013 140.512 52.9099C142.154 50.5927 144.525 49.6887 147.36 49.9306C150.658 50.2107 153.055 52.4515 153.545 55.6217C153.638 56.2583 153.664 56.9076 153.691 57.557C153.704 57.7989 153.651 58.0535 153.612 58.3463ZM142.724 55.8636L150.26 55.8636C150.247 54.1194 148.644 52.668 146.724 52.6298C144.697 52.5788 142.83 54.0812 142.724 55.8636Z" fill="white"/>
<path d="M180.911 57.3408C180.911 61.555 177.52 64.7634 173.056 64.7761C168.579 64.7888 165.149 61.555 165.162 57.3408C165.175 53.1138 168.553 49.9054 173.017 49.8927C177.48 49.8799 180.911 53.1138 180.911 57.3408ZM177.441 57.328C177.427 54.8581 175.48 52.961 172.95 52.9738C170.566 52.9865 168.646 54.9472 168.659 57.3662C168.672 59.7725 170.633 61.7205 173.056 61.7078C175.494 61.7078 177.441 59.7598 177.441 57.328Z" fill="white"/>
<path d="M112.114 64.4067L108.869 64.4067V62.6497C108.697 62.8407 108.604 62.9298 108.512 63.0316C106.909 64.7886 103.863 65.3361 101.743 64.1775C100.18 63.3245 99.5975 61.9622 99.7035 60.2943C99.8095 58.5501 100.776 57.366 102.392 56.653C103.518 56.1565 104.737 56.0037 105.942 55.8127C106.763 55.6854 107.598 55.5581 108.419 55.4435C108.657 55.4053 108.724 55.3035 108.71 55.087C108.697 53.9666 107.849 53.1136 106.512 52.9099C104.459 52.6043 102.657 53.19 101.055 54.4122C100.922 54.5141 100.79 54.6287 100.644 54.7305C100.631 54.7433 100.604 54.756 100.564 54.7687C100.551 54.7433 100.511 54.7178 100.511 54.6923C100.511 53.712 100.498 52.7444 100.511 51.764C100.511 51.6367 100.631 51.4839 100.75 51.3948C101.465 50.8601 102.273 50.4781 103.161 50.249C104.962 49.7779 106.777 49.7524 108.565 50.3126C110.737 50.9874 112.061 52.6807 112.088 54.8833C112.128 57.9644 112.114 61.0455 112.114 64.1266C112.128 64.203 112.114 64.2921 112.114 64.4067ZM108.697 57.9771C107.479 58.1808 106.26 58.3464 105.041 58.5883C104.618 58.6774 104.194 58.8684 103.81 59.0975C103.2 59.4667 102.988 60.0524 103.108 60.7272C103.227 61.3765 103.664 61.7967 104.3 61.9367C104.737 62.0386 105.227 62.064 105.664 62.0131C107.796 61.7585 109.068 60.1543 108.697 57.9771Z" fill="white"/>
<path d="M164.09 50.2614V53.1133H160.183V53.5462C160.183 55.456 160.183 57.3657 160.183 59.2882C160.183 59.6065 160.21 59.9376 160.276 60.2558C160.488 61.2362 161.163 61.7327 162.369 61.7073C162.938 61.6945 163.508 61.5418 164.117 61.4399C164.117 61.4272 164.13 61.5036 164.13 61.5799C164.13 62.382 164.117 63.1969 164.143 63.999C164.143 64.2154 164.064 64.33 163.865 64.3937C162.183 64.9411 160.514 65.0048 158.912 64.2027C157.561 63.5279 156.912 62.3439 156.819 60.9434C156.713 59.3774 156.753 57.7986 156.726 56.2199C156.713 55.2013 156.726 54.1828 156.726 53.1133L154.104 53.1133C156.143 50.6052 158.13 48.1862 160.17 45.6907C160.183 45.8944 160.196 46.0218 160.196 46.1491C160.196 47.3586 160.196 48.5808 160.196 49.7904C160.196 50.2742 160.196 50.2742 160.713 50.2742H164.09V50.2614Z" fill="white"/>
<path d="M39 63.172L39 45.8186C39.649 45.9077 40.2716 45.9969 40.8941 46.0987C41.7948 46.2388 42.6955 46.3788 43.5961 46.5189C43.8478 46.5571 43.9538 46.6462 43.9538 46.9008C43.9406 51.8153 43.9273 56.7425 43.9273 61.6569C43.9273 61.8479 43.9273 62.0007 43.6757 62.0643C42.1789 62.4208 40.6822 62.8028 39.1855 63.172C39.1325 63.172 39.0795 63.172 39 63.172Z" fill="white"/>
<path d="M118.697 50.2365V52.4137C118.724 52.4137 118.75 52.4264 118.777 52.4264C118.856 52.3118 118.936 52.1972 119.002 52.0699C120.035 50.5548 121.518 49.8928 123.373 49.9437C123.651 49.9564 123.77 50.0328 123.757 50.3256C123.744 51.3442 123.744 52.3627 123.744 53.3813C123.386 53.3558 123.055 53.3049 122.737 53.3176C120.896 53.394 119.558 54.3362 119.042 56.0677C118.843 56.7297 118.737 57.43 118.724 58.1175C118.684 60.0527 118.71 61.9879 118.71 63.9232V64.3688H115.267C115.267 64.2287 115.253 64.1014 115.253 63.9741C115.253 59.518 115.253 55.0746 115.24 50.6185C115.24 50.2747 115.359 50.1983 115.691 50.1983C116.671 50.2493 117.638 50.2365 118.697 50.2365Z" fill="white"/>
</svg>
