<svg width="25" height="24" viewBox="0 0 25 24" fill="none" xmlns="http://www.w3.org/2000/svg">
<g clip-path="url(#clip0_3156_68263)">
<path d="M10.328 5L8.328 7H4.5V19H20.5V7H16.672L14.672 5H10.328ZM9.5 3H15.5L17.5 5H21.5C21.7652 5 22.0196 5.10536 22.2071 5.29289C22.3946 5.48043 22.5 5.73478 22.5 6V20C22.5 20.2652 22.3946 20.5196 22.2071 20.7071C22.0196 20.8946 21.7652 21 21.5 21H3.5C3.23478 21 2.98043 20.8946 2.79289 20.7071C2.60536 20.5196 2.5 20.2652 2.5 20V6C2.5 5.73478 2.60536 5.48043 2.79289 5.29289C2.98043 5.10536 3.23478 5 3.5 5H7.5L9.5 3ZM12.5 18C11.0413 18 9.64236 17.4205 8.61091 16.3891C7.57946 15.3576 7 13.9587 7 12.5C7 11.0413 7.57946 9.64236 8.61091 8.61091C9.64236 7.57946 11.0413 7 12.5 7C13.9587 7 15.3576 7.57946 16.3891 8.61091C17.4205 9.64236 18 11.0413 18 12.5C18 13.9587 17.4205 15.3576 16.3891 16.3891C15.3576 17.4205 13.9587 18 12.5 18ZM12.5 16C13.4283 16 14.3185 15.6313 14.9749 14.9749C15.6313 14.3185 16 13.4283 16 12.5C16 11.5717 15.6313 10.6815 14.9749 10.0251C14.3185 9.36875 13.4283 9 12.5 9C11.5717 9 10.6815 9.36875 10.0251 10.0251C9.36875 10.6815 9 11.5717 9 12.5C9 13.4283 9.36875 14.3185 10.0251 14.9749C10.6815 15.6313 11.5717 16 12.5 16Z" fill="white"/>
</g>
<defs>
<clipPath id="clip0_3156_68263">
<rect width="24" height="24" fill="white" transform="translate(0.5)"/>
</clipPath>
</defs>
</svg>
