<svg width="48" height="48" viewBox="0 0 48 48" fill="none" xmlns="http://www.w3.org/2000/svg">
<g clip-path="url(#clip0_1618_52184)">
<path d="M24 2C28.42 2 32 5.58 32 10C32 14.42 28.42 18 24 18C19.58 18 16 14.42 16 10C16 5.58 19.58 2 24 2ZM24 6C21.79 6 20 7.79 20 10C20 12.21 21.79 14 24 14C26.21 14 28 12.21 28 10C28 7.79 26.21 6 24 6Z" fill="white"/>
<path opacity="0.5" d="M36.7287 21.9605C39.8527 25.0825 39.8527 30.1485 36.7287 33.2725L25.4147 44.5865C24.6347 45.3665 23.3667 45.3665 22.5867 44.5865L11.2727 33.2725C8.14869 30.1485 8.14869 25.0825 11.2727 21.9585C14.3967 18.8345 19.4627 18.8345 22.5867 21.9585L23.9987 23.3725L25.4147 21.9585C28.5387 18.8345 33.6047 18.8345 36.7287 21.9585V21.9605ZM14.1007 24.7845C12.5407 26.3465 12.5407 28.8805 14.1007 30.4425L24.0007 40.3425L33.9007 30.4425C35.4607 28.8805 35.4607 26.3465 33.9007 24.7845C32.3387 23.2245 29.8047 23.2245 28.2407 24.7885L23.9967 29.0245L19.7567 24.7845C18.1967 23.2245 15.6627 23.2245 14.1007 24.7845Z" fill="white"/>
</g>
<defs>
<clipPath id="clip0_1618_52184">
<rect width="48" height="48" fill="white"/>
</clipPath>
</defs>
</svg>
