<svg width="48" height="48" viewBox="0 0 48 48" fill="none" xmlns="http://www.w3.org/2000/svg">
<g clip-path="url(#clip0_1892_60050)">
<path d="M35.2351 11.936L38.1411 9.03005L40.9691 11.858L38.0631 14.764C40.9347 18.3584 42.321 22.9158 41.9373 27.5003C41.5536 32.0848 39.4291 36.3484 36.0001 39.4155C32.5711 42.4825 28.0979 44.1202 23.4991 43.9922C18.9004 43.8642 14.5252 41.9802 11.2721 38.7271C8.01901 35.474 6.135 31.0988 6.00698 26.5001C5.87896 21.9013 7.51664 17.4281 10.5837 13.9991C13.6508 10.5701 17.9144 8.44555 22.4989 8.06189C27.0834 7.67822 31.6408 9.06451 35.2351 11.936ZM23.9991 40C25.8376 40 27.6582 39.6379 29.3567 38.9344C31.0553 38.2308 32.5986 37.1996 33.8986 35.8995C35.1987 34.5995 36.2299 33.0562 36.9335 31.3576C37.637 29.6591 37.9991 27.8386 37.9991 26C37.9991 24.1615 37.637 22.341 36.9335 20.6425C36.2299 18.9439 35.1987 17.4006 33.8986 16.1006C32.5986 14.8005 31.0553 13.7693 29.3567 13.0657C27.6582 12.3622 25.8376 12 23.9991 12C20.2861 12 16.7252 13.475 14.0996 16.1006C11.4741 18.7261 9.99914 22.287 9.99914 26C9.99914 29.7131 11.4741 33.274 14.0996 35.8995C16.7252 38.5251 20.2861 40 23.9991 40Z" fill="white"/>
<path opacity="0.5" d="M21.999 16H25.999V28H21.999V16ZM15.999 2H31.999V6H15.999V2Z" fill="white"/>
</g>
<defs>
<clipPath id="clip0_1892_60050">
<rect width="48" height="48" fill="white"/>
</clipPath>
</defs>
</svg>
