<svg width="48" height="48" viewBox="0 0 48 48" fill="none" xmlns="http://www.w3.org/2000/svg">
<g clip-path="url(#clip0_1618_48597)">
<path d="M36.7282 21.96C39.8522 25.082 39.8522 30.148 36.7282 33.272L25.4142 44.586C24.6342 45.366 23.3662 45.366 22.5862 44.586L11.2722 33.272C8.1482 30.148 8.1482 25.082 11.2722 21.958C14.3962 18.834 19.4622 18.834 22.5862 21.958L23.9982 23.372L25.4142 21.958C28.5382 18.834 33.6042 18.834 36.7282 21.958V21.96ZM14.1002 24.784C12.5402 26.346 12.5402 28.88 14.1002 30.442L24.0002 40.342L33.9002 30.442C35.4602 28.88 35.4602 26.346 33.9002 24.784C32.3382 23.224 29.8042 23.224 28.2402 24.788L23.9962 29.024L19.7562 24.784C18.1962 23.224 15.6622 23.224 14.1002 24.784ZM24.0002 2C28.4202 2 32.0002 5.58 32.0002 10C32.0002 14.42 28.4202 18 24.0002 18C19.5802 18 16.0002 14.42 16.0002 10C16.0002 5.58 19.5802 2 24.0002 2ZM24.0002 6C21.7902 6 20.0002 7.79 20.0002 10C20.0002 12.21 21.7902 14 24.0002 14C26.2102 14 28.0002 12.21 28.0002 10C28.0002 7.79 26.2102 6 24.0002 6Z" fill="black"/>
<path d="M36.7287 21.9605C39.8527 25.0825 39.8527 30.1485 36.7287 33.2725L25.4147 44.5865C24.6347 45.3665 23.3667 45.3665 22.5867 44.5865L11.2727 33.2725C8.14869 30.1485 8.14869 25.0825 11.2727 21.9585C14.3967 18.8345 19.4627 18.8345 22.5867 21.9585L23.9987 23.3725L25.4147 21.9585C28.5387 18.8345 33.6047 18.8345 36.7287 21.9585V21.9605ZM14.1007 24.7845C12.5407 26.3465 12.5407 28.8805 14.1007 30.4425L24.0007 40.3425L33.9007 30.4425C35.4607 28.8805 35.4607 26.3465 33.9007 24.7845C32.3387 23.2245 29.8047 23.2245 28.2407 24.7885L23.9967 29.0245L19.7567 24.7845C18.1967 23.2245 15.6627 23.2245 14.1007 24.7845Z" fill="#CC2027"/>
</g>
<defs>
<clipPath id="clip0_1618_48597">
<rect width="48" height="48" fill="white"/>
</clipPath>
</defs>
</svg>
