<svg width="25" height="24" viewBox="0 0 25 24" fill="none" xmlns="http://www.w3.org/2000/svg">
<g clip-path="url(#clip0_2794_64922)">
<path d="M12.5002 3C17.8922 3 22.3782 6.88 23.3192 12C22.3792 17.12 17.8922 21 12.5002 21C7.10815 21 2.62215 17.12 1.68115 12C2.62115 6.88 7.10815 3 12.5002 3ZM12.5002 19C14.5396 18.9996 16.5185 18.3068 18.113 17.0352C19.7075 15.7635 20.8231 13.9883 21.2772 12C20.8214 10.0133 19.7051 8.24 18.1108 6.97003C16.5165 5.70005 14.5385 5.00853 12.5002 5.00853C10.4618 5.00853 8.48384 5.70005 6.88953 6.97003C5.29521 8.24 4.17892 10.0133 3.72315 12C4.17725 13.9883 5.29283 15.7635 6.8873 17.0352C8.48177 18.3068 10.4607 18.9996 12.5002 19ZM12.5002 16.5C11.3067 16.5 10.1621 16.0259 9.31817 15.182C8.47426 14.3381 8.00015 13.1935 8.00015 12C8.00015 10.8065 8.47426 9.66193 9.31817 8.81802C10.1621 7.97411 11.3067 7.5 12.5002 7.5C13.6936 7.5 14.8382 7.97411 15.6821 8.81802C16.526 9.66193 17.0002 10.8065 17.0002 12C17.0002 13.1935 16.526 14.3381 15.6821 15.182C14.8382 16.0259 13.6936 16.5 12.5002 16.5ZM12.5002 14.5C13.1632 14.5 13.7991 14.2366 14.2679 13.7678C14.7368 13.2989 15.0002 12.663 15.0002 12C15.0002 11.337 14.7368 10.7011 14.2679 10.2322C13.7991 9.76339 13.1632 9.5 12.5002 9.5C11.8371 9.5 11.2012 9.76339 10.7324 10.2322C10.2635 10.7011 10.0002 11.337 10.0002 12C10.0002 12.663 10.2635 13.2989 10.7324 13.7678C11.2012 14.2366 11.8371 14.5 12.5002 14.5Z" fill="white"/>
</g>
<defs>
<clipPath id="clip0_2794_64922">
<rect width="24" height="24" fill="white" transform="translate(0.5)"/>
</clipPath>
</defs>
</svg>
